<svg width="247" height="60" xmlns="http://www.w3.org/2000/svg"><g fill="#333"><path d="M0 0h60v60.071H0V0z" fill="none"/><svg height="60.071" width="60"><svg viewBox="-0.001 -0.004 123.037 123.184"><path fill="#1572bb" d="M17.91 81c.42-.48.81-1 1.26-1.43L79.54 19.2c5.93-5.92 11.89-11.81 17.8-17.75A3.3 3.3 0 0 1 99.93.37h13.27c.5 0 1-.18 1.51.21 0 .62-.56.86-.91 1.21Q66.73 48.93 19.64 96c-.41.41-.88.74-1.32 1.11 0-4.72-.05-9.45-.1-14.17-.01-.63.25-1.36-.31-1.94zm9.37 23.73 19.56-19.68q28.22-28.23 56.44-56.43 9-8.94 17.94-17.86a3.84 3.84 0 0 1 1.69-1.26c0 3.79-.27 7.45.07 11.06.37 3.9-1.1 6.49-3.84 9.2Q82 66.66 45 103.81c-.49.48-.87 1.1-1.57 1.34q-7 0-14-.09a3.43 3.43 0 0 1-2.15-.33zm-9.17-57.05c.17-.6.69-.92 1.1-1.32q22.53-22.5 45.09-45C64.78.88 65.2.3 66 .31h15.44c.17.84-.35 1-.64 1.33q-30.51 30.59-61 61.13a11.09 11.09 0 0 1-1.07.85c-.73-.5-.44-1.26-.45-1.91-.09-4.71-.12-9.35-.17-14.03zm42.27 57.05c4.95-5 9.87-10 14.84-15q13.48-13.53 27-27 9.53-9.49 19.07-19c.4-.39.69-.95 1.34-1 .42.32.24.76.25 1.14v13.79a2.78 2.78 0 0 1-.82 2.17q-22.34 22.39-44.71 44.84a3.94 3.94 0 0 1-.71.46l-14-.1a4.77 4.77 0 0 1-2.26-.3zM18.05 18.4c0-3.78 0-7.56.14-11.34.06-2.19-1-5.06.42-6.37S22.82.33 25 .32h23.3c.37.64-.09.86-.35 1.12q-14.34 14.4-28.71 28.79a5.08 5.08 0 0 1-.69.5c-.58-.58-.31-1.31-.34-2-.11-3.43.19-6.88-.16-10.33zM93.33 105c3.09-3.47 6.46-6.67 9.74-9.94L121.24 77c.44-.44.9-.85 1.33-1.27.61.46.4 1 .4 1.39v26.33c0 1.45-.49 1.71-1.79 1.7-5.46 0-10.93.05-16.39.08L93.33 105z"/><path fill="#1e1739" d="M18.05 18.4c.35 3.45.05 6.9.16 10.36 0 .66-.24 1.39.34 2L.1 48.89V20.41c0-1.75.51-2.09 2.14-2.06 5.23.11 10.52.05 15.81.05zM93.33 105l11.51.22v16.41c0 .86.08 1.56-1.2 1.55H75.31L93.33 105zM18.11 47.68c.05 4.68.08 9.35.14 14 0 .65-.28 1.41.45 1.91L.85 81.52a3 3 0 0 1-.68.33 87.14 87.14 0 0 0-.07-10C-.42 67.29 1.08 64 4.55 61c4.77-4.16 9.07-8.85 13.56-13.32zM17.91 81c.56.59.3 1.32.31 2 .05 4.72.07 9.45.1 14.17-4.45 4.48-8.91 9-13.34 13.46-1.45 1.48-2.82 3.06-4.19 4.56a1.39 1.39 0 0 1-.59-1.55v-13.6a2.75 2.75 0 0 1 .8-2.2Q9.48 89.44 17.91 81zm9.37 23.73a3.43 3.43 0 0 0 2.18.33q7 .06 14 .09-8.55 8.59-17.1 17.2A1.83 1.83 0 0 1 25 123c-5.16 0-10.32 0-15.7-.4l17.98-17.87zm33.1 0a4.77 4.77 0 0 0 2.21.3l14 .1q-8.6 8.64-17.19 17.29a1.81 1.81 0 0 1-1.39.56h-15.8l18.17-18.25z"/></svg></svg><path d="m90.435 9.792 15.31 33.92h-6.39l-2.62-5.81-2.62-5.82-6.88-15.21-6.88 15.21h8.82l2.62 5.82h-14.05l-2.62 5.81h-6.4l15.32-33.92h6.39zm29.7 9.02q2.38 0 4.31.89 1.94.9 3.32 2.47 1.38 1.58 2.14 3.66.75 2.08.75 4.46v13.42h-5.82v-13.42q0-2.42-1.69-4.02-1.65-1.65-3.98-1.65-2.37 0-4.02 1.65-1.65 1.64-1.65 4.02v13.42h-5.81v-24.23h5.81v1.85q1.31-1.12 2.96-1.82t3.68-.7zm37.31 15.21q0 2.37-.77 4.29-.78 1.91-2.21 3.24-1.43 1.34-3.46 2.06-2.04.73-4.56.73-4.02 0-7.17-1.28-3.15-1.29-5.18-2.94l4.02-4.02q1.6 1.46 3.58 2.23 1.21.49 2.28.63 1.07.15 1.75.15 1.25 0 2.3-.32 1.04-.31 1.81-.85 1.65-1.21 1.65-3.19 0-1.21-.87-2.18-.68-.78-1.75-1.26-.87-.49-1.84-.78-.97-.29-1.74-.53-.24-.1-.44-.12-.19-.03-.34-.12-.09 0-.29-.1-1.01-.29-2.93-1.02-1.91-.73-3.8-1.99-4.41-2.95-4.41-7.26 0-2.86.99-4.82 1-1.97 2.59-3.2 1.6-1.24 3.57-1.77 1.96-.53 3.85-.53 3.49 0 5.86.82t3.78 1.65q.73.43 1.24.85.5.41.89.75l-4.12 4.16q-1.31-1.3-2.66-1.98-2.04-.97-4.27-.97-.96 0-1.93.24t-1.7.63q-2.13 1.31-2.13 3.44 0 1.31.87 2.23.63.73 1.75 1.31.92.48 1.93.77 1.02.29 1.89.54l.58.14q.25.1.92.29.68.2 1.6.58.92.39 2.01.92 1.09.54 2.16 1.26 4.7 3.1 4.7 7.32zm8.72 9.69h-5.81V9.792h5.81v33.92zm9.21 0h-5.82v-24.23h5.82v24.23zm-5.82-28.1v-5.82h5.82v5.82h-5.82zm28.2-5.87h5.82v33.97h-5.82v-12.11q0-2.96-2.03-4.95-2.04-2.03-4.9-2.03-2.9 0-4.94 2.03-2.03 2.04-2.03 4.95 0 2.86 2.03 4.89.97 1.02 2.26 1.53 1.28.51 2.68.51 1.41 0 2.57-.49l2.09 5.19q-2.23 1.11-5.14 1.11-2.67 0-4.92-.99-2.25-1-3.9-2.74-1.65-1.75-2.57-4.07-.92-2.33-.92-4.94 0-2.67.92-4.99.92-2.33 2.57-4.07 1.65-1.75 3.9-2.74 2.25-.99 4.92-.99 2.33 0 4.17.72 1.84.73 3.24 1.84V9.742zm33.73 24.76h-18.8q.48 1.12 1.4 1.99 1.02 1.02 2.28 1.53 1.26.51 2.66.51 1.99 0 3.54-.92l6.06 2.42q-1.75 2.03-4.22 3.17-2.47 1.14-5.38 1.14-2.66 0-4.99-.99-2.32-1-4.07-2.74-1.74-1.75-2.73-4.07-1-2.33-1-4.94 0-2.67 1-4.99.99-2.33 2.73-4.07 1.75-1.75 4.07-2.74 2.33-.99 4.99-.99 2.67 0 4.99.99 2.33.99 4.07 2.74 1.75 1.74 2.74 4.07.99 2.32.99 4.99 0 1.55-.33 2.9zm-12.46-9.88q-2.81 0-4.94 2.03-.92.93-1.4 2.04h12.69q-.48-1.11-1.4-2.04-2.04-2.03-4.95-2.03zm21.27-3.29q1.36-1.12 3.08-1.85 1.72-.72 3.9-.72v5.81q-2.91 0-4.94 2.04-2.04 2.13-2.04 4.94v12.16h-5.81v-24.27h5.81v1.89zM73.725 53.922H85.06v1H73.725v-1zm157.215 0h11.335v1H230.94v-1zM92.454 55.158h-2.37l.38-1.2c.14-.44.28-.88.4-1.32.13-.43.26-.88.38-1.34h.04c.13.46.26.91.39 1.34.13.44.26.88.41 1.32l.37 1.2zm.25.8.74 2.4h1.07l-2.66-7.87h-1.13l-2.66 7.87h1.02l.75-2.4h2.87zm2.93-5.47v7.87h.95v-4.12c0-.41-.02-.83-.05-1.24-.02-.41-.05-.82-.09-1.22h.05l.85 1.62 2.86 4.96h1.03v-7.87h-.95v4.07c0 .41.02.83.05 1.26.02.43.05.84.07 1.24h-.04l-.86-1.63-2.84-4.94h-1.03zm10.67 8.01c.49 0 .95-.09 1.36-.28.41-.2.77-.47 1.07-.83.3-.35.53-.78.69-1.29.17-.51.25-1.08.25-1.71 0-.63-.08-1.19-.25-1.69-.16-.5-.39-.92-.69-1.27-.3-.35-.66-.62-1.07-.8a3.22 3.22 0 0 0-1.36-.29c-.5 0-.95.1-1.37.28-.41.18-.76.45-1.06.8-.29.35-.52.77-.69 1.27-.16.5-.24 1.07-.24 1.7 0 .63.08 1.2.24 1.71.17.51.4.94.69 1.29.3.36.65.63 1.06.83.42.19.87.28 1.37.28zm0-.87c-.36 0-.67-.08-.96-.23-.28-.15-.53-.37-.73-.65-.2-.29-.36-.63-.47-1.02-.12-.4-.17-.85-.17-1.34 0-.49.05-.93.17-1.32.11-.39.27-.73.47-1 .2-.27.45-.48.73-.63.29-.15.6-.22.96-.22.35 0 .67.07.95.22.28.15.53.36.73.63.21.27.36.61.48 1 .11.39.16.83.16 1.32 0 .49-.05.94-.16 1.34-.12.39-.27.73-.48 1.02-.2.28-.45.5-.73.65-.28.15-.6.23-.95.23zm6.45-6.3v7.03h1.01v-7.03h2.38v-.84h-5.76v.84h2.37zm4.8-.84v7.87h1v-3.71h3.66v3.71h1.01v-7.87h-1.01v3.3h-3.66v-3.3h-1zm7.83 0v7.87h4.65v-.85h-3.66v-2.86h2.99v-.85h-2.99v-2.47h3.54v-.84h-4.53zm7.32 3.73v-2.93h1.32c.61 0 1.08.11 1.41.31.33.21.49.58.49 1.1 0 .51-.16.89-.49 1.14-.33.25-.8.38-1.41.38h-1.32zm3.32 4.14h1.13l-1.99-3.43c.53-.14.96-.39 1.28-.76.32-.37.48-.86.48-1.47 0-.41-.07-.76-.2-1.04-.14-.28-.33-.5-.57-.68-.25-.18-.54-.3-.88-.38-.34-.07-.71-.11-1.11-.11h-2.46v7.87h1v-3.32h1.42l1.9 3.32zm5.1-1.72-.6.7c.34.36.75.64 1.22.85.48.21.99.31 1.54.31.42 0 .79-.05 1.12-.17.32-.12.6-.28.84-.48.23-.2.41-.44.53-.71a2.208 2.208 0 0 0 .06-1.64c-.08-.22-.2-.41-.34-.58-.15-.16-.32-.31-.52-.43s-.41-.23-.63-.33l-1.12-.48c-.16-.06-.32-.13-.47-.21-.15-.08-.29-.16-.42-.26a1.1 1.1 0 0 1-.3-.35.937.937 0 0 1-.12-.49c0-.36.14-.64.4-.84.27-.21.63-.31 1.07-.31.36 0 .69.07.99.2.29.13.55.31.79.54l.54-.64a3.27 3.27 0 0 0-1.02-.71c-.4-.18-.83-.27-1.3-.27-.36 0-.69.06-.99.16-.3.1-.56.25-.78.44-.22.19-.4.41-.52.66-.12.26-.19.54-.19.83 0 .29.05.54.15.76.09.22.22.41.37.57.15.16.32.3.52.41.19.11.38.21.56.29l1.13.49c.18.09.35.17.51.25.16.08.3.17.42.27a1.13 1.13 0 0 1 .38.87c0 .39-.15.7-.44.93-.28.24-.69.36-1.21.36-.41 0-.8-.09-1.18-.27-.38-.18-.71-.42-.99-.72zm6.38-6.15v7.87h4.44v-.85h-3.44v-7.02h-1zm5.84 0v7.87h.99v-7.87h-.99zm3.15 0v7.87h2.02c.59 0 1.11-.09 1.57-.27.46-.18.84-.44 1.15-.78.31-.34.55-.76.71-1.25.16-.49.24-1.05.24-1.67 0-1.26-.32-2.22-.95-2.89-.63-.68-1.55-1.01-2.77-1.01h-1.97zm1.9 7.05h-.9v-6.24h.9c.92 0 1.61.27 2.07.8.46.52.69 1.29.69 2.29s-.23 1.77-.69 2.33c-.46.55-1.15.82-2.07.82zm5.48-7.05v7.87h1v-7.87h-1zm3.16 0v7.87h.95v-4.12c0-.41-.02-.83-.05-1.24-.02-.41-.05-.82-.09-1.22h.05l.85 1.62 2.86 4.96h1.03v-7.87h-.95v4.07c0 .41.02.83.05 1.26.02.43.05.84.07 1.24h-.04l-.86-1.63-2.84-4.94h-1.03zm7.31 3.93c0 .64.08 1.22.26 1.73.18.5.42.93.73 1.28s.69.61 1.12.8c.43.18.91.27 1.43.27.52 0 1-.08 1.42-.25.42-.18.76-.39 1.01-.66v-3.31h-2.58v.83h1.67v2.05c-.16.14-.37.26-.62.34-.25.09-.52.13-.8.13-.42 0-.79-.08-1.12-.23-.32-.15-.59-.37-.81-.65-.22-.28-.39-.62-.51-1.01-.11-.4-.17-.84-.17-1.34 0-.49.06-.93.18-1.32.13-.39.3-.73.53-1 .22-.28.49-.49.81-.64.32-.15.68-.22 1.08-.22s.73.07.99.21c.26.14.49.31.69.52l.57-.63c-.24-.24-.53-.47-.9-.67-.36-.2-.82-.31-1.36-.31-.53 0-1.01.1-1.45.29-.44.18-.82.45-1.15.81-.32.35-.57.78-.75 1.28-.18.5-.27 1.07-.27 1.7zm9.82 0c0 .64.09 1.22.27 1.73.17.5.42.93.73 1.28s.68.61 1.12.8c.43.18.9.27 1.42.27.53 0 1.01-.08 1.43-.25.42-.18.75-.39 1.01-.66v-3.31h-2.58v.83h1.67v2.05c-.16.14-.37.26-.62.34-.25.09-.52.13-.8.13-.42 0-.8-.08-1.12-.23-.32-.15-.6-.37-.82-.65-.22-.28-.38-.62-.5-1.01-.12-.4-.17-.84-.17-1.34 0-.49.06-.93.18-1.32.13-.39.3-.73.52-1 .23-.28.5-.49.82-.64.32-.15.68-.22 1.08-.22s.73.07.99.21c.26.14.49.31.69.52l.56-.63c-.23-.24-.53-.47-.89-.67-.36-.2-.82-.31-1.36-.31-.53 0-1.01.1-1.45.29-.44.18-.83.45-1.15.81-.32.35-.58.78-.76 1.28-.18.5-.27 1.07-.27 1.7zm11.16.74h-2.36l.37-1.2c.15-.44.28-.88.41-1.32.13-.43.25-.88.37-1.34h.05c.13.46.26.91.38 1.34.13.44.27.88.41 1.32l.37 1.2zm.26.8.74 2.4h1.07l-2.67-7.87h-1.12l-2.67 7.87h1.02l.76-2.4h2.87zm2.92-5.47v7.87h4.44v-.85h-3.44v-7.02h-1zm5.84 0v7.87h4.44v-.85h-3.45v-7.02h-.99zm5.83 0v7.87h4.65v-.85h-3.66v-2.86h2.99v-.85h-2.99v-2.47h3.54v-.84h-4.53zm7.32 3.73v-2.93h1.32c.61 0 1.09.11 1.41.31.33.21.5.58.5 1.1 0 .51-.17.89-.5 1.14-.32.25-.8.38-1.41.38h-1.32zm3.32 4.14h1.13l-1.99-3.43c.53-.14.96-.39 1.28-.76.32-.37.48-.86.48-1.47 0-.41-.07-.76-.2-1.04-.14-.28-.33-.5-.57-.68-.25-.18-.54-.3-.88-.38-.34-.07-.71-.11-1.11-.11h-2.46v7.87h1v-3.32h1.43l1.89 3.32zm3.76-3.05v3.05h1.01v-3.05l2.36-4.82h-1.04l-1.01 2.22c-.12.29-.25.57-.39.85-.13.28-.27.57-.4.86h-.05c-.14-.29-.27-.58-.39-.86s-.24-.56-.37-.85l-1.02-2.22h-1.07l2.37 4.82z"/></g></svg>